<?xml version="1.0" encoding="UTF-8"?>
<svg width="128" height="104" version="1.1" viewBox="0 0 128 104" xmlns="http://www.w3.org/2000/svg">
 <g>
  <g transform="matrix(.2598 0 0 .2598 .00021564 -12.162)">
   <path transform="translate(215.55 235.3)" d="m-46.09-188.49-23.496 74.789h-145.96v324.27h492.68v-324.27h-145.96l-23.494-74.789h-112.97zm76.881 105.12c72.791 0 131.8 59.009 131.8 131.8 0 72.791-59.01 131.8-131.8 131.8-72.791 0-131.8-59.009-131.8-131.8 0-72.792 59.008-131.8 131.8-131.8z"/>
  </g>
  <g transform="translate(41.357 27.295)">
   <g id="b175_hot_food">
    <path d="m26.138 21.111c0.019-0.158 0.027-0.32 0.027-0.482 0-2.045-1.418-3.701-3.168-3.701-1.753 0-3.173 1.656-3.173 3.701 0 0.125 8e-3 0.248 0.018 0.373-9.762 1.363-17.28 9.746-17.28 19.887h40.168c0-9.901-7.168-18.123-16.592-19.778z"/>
    <rect x="2.562" y="42.826" width="40.168" height="2.467"/>
    <path d="m13.124 16.174c0.29 0.318 0.65 0.527 1.016 0.641 0.366 0.113 0.741 0.156 1.105 0.113-0.679-0.23-1.299-0.621-1.56-1.152-0.271-0.516-0.184-1.123 0.019-1.711 0.211-0.594 0.539-1.174 0.902-1.738 0.364-0.564 0.77-1.117 1.196-1.66 0.444-0.578 0.866-1.188 1.229-1.842 0.357-0.658 0.671-1.357 0.822-2.146 0.072-0.391 0.106-0.805 0.035-1.227-0.065-0.418-0.241-0.84-0.526-1.158-0.286-0.316-0.646-0.527-1.013-0.641s-0.74-0.153-1.103-0.114c0.677 0.229 1.3 0.623 1.56 1.156 0.271 0.516 0.181 1.119-0.022 1.707-0.211 0.596-0.535 1.176-0.899 1.738-0.364 0.566-0.771 1.117-1.195 1.662-0.444 0.58-0.866 1.186-1.229 1.842-0.358 0.656-0.673 1.359-0.821 2.145-0.074 0.391-0.107 0.809-0.037 1.227 0.068 0.42 0.241 0.839 0.521 1.158z"/>
    <path d="m20.525 12.652c0.287 0.314 0.648 0.527 1.013 0.639 0.37 0.115 0.745 0.154 1.106 0.115-0.678-0.23-1.3-0.625-1.558-1.152-0.274-0.521-0.185-1.123 0.02-1.713 0.206-0.594 0.536-1.174 0.898-1.736 0.367-0.566 0.771-1.119 1.197-1.662 0.446-0.578 0.865-1.186 1.229-1.842 0.355-0.656 0.675-1.359 0.824-2.146 0.073-0.391 0.104-0.805 0.033-1.227-0.066-0.416-0.243-0.84-0.525-1.158-0.285-0.316-0.647-0.531-1.013-0.643-0.367-0.111-0.744-0.152-1.106-0.111 0.677 0.23 1.3 0.623 1.558 1.154 0.271 0.52 0.183 1.119-0.021 1.711-0.21 0.59-0.535 1.174-0.899 1.736-0.364 0.566-0.767 1.117-1.192 1.662-0.446 0.578-0.867 1.188-1.231 1.844-0.354 0.652-0.67 1.355-0.821 2.145-0.071 0.391-0.104 0.807-0.034 1.225 0.066 0.415 0.24 0.841 0.522 1.159z"/>
    <path d="m28.124 16.174c0.287 0.318 0.646 0.527 1.014 0.641s0.742 0.156 1.104 0.113c-0.677-0.23-1.298-0.621-1.56-1.152-0.271-0.516-0.182-1.123 0.021-1.711 0.211-0.594 0.539-1.174 0.9-1.738 0.366-0.564 0.77-1.117 1.195-1.66 0.447-0.578 0.868-1.188 1.229-1.842 0.358-0.658 0.677-1.357 0.825-2.146 0.074-0.391 0.106-0.805 0.036-1.227-0.069-0.418-0.244-0.84-0.524-1.158-0.288-0.316-0.648-0.527-1.016-0.641s-0.744-0.153-1.107-0.114c0.679 0.229 1.302 0.623 1.557 1.156 0.275 0.516 0.183 1.119-0.019 1.707-0.209 0.596-0.535 1.176-0.899 1.738-0.366 0.566-0.772 1.117-1.193 1.662-0.447 0.58-0.87 1.186-1.228 1.842-0.361 0.656-0.676 1.359-0.826 2.145-0.072 0.391-0.105 0.809-0.033 1.227 0.066 0.42 0.238 0.839 0.524 1.158z"/>
   </g>
  </g>
 </g>
 <style type="text/css">.st0{fill-rule:evenodd;clip-rule:evenodd;}</style>
</svg>
